<svg viewBox="0 0 1024 1024" xmlns="http://www.w3.org/2000/svg" width="200" height="200">
  <path d="M128 512c0-212.077 171.923-384 384-384s384 171.923 384 384c0 84.831-27.477 163.295-73.898 226.947L512 896 201.898 738.947C155.477 675.295 128 596.831 128 512z" fill="#4A90E2"/>
  <path d="M256 448c0-141.385 114.615-256 256-256s256 114.615 256 256c0 56.554-18.318 108.863-49.265 151.298L512 704 305.265 599.298C274.318 556.863 256 504.554 256 448z" fill="#6BB6FF" opacity="0.7"/>
  <path d="M384 416c0-70.692 57.308-128 128-128s128 57.308 128 128c0 28.277-9.159 54.432-24.633 75.649L512 576 408.633 491.649C393.159 470.432 384 444.277 384 416z" fill="#87CEEB" opacity="0.5"/>
</svg>