<svg viewBox="0 0 1024 1024" xmlns="http://www.w3.org/2000/svg" width="200" height="200">
  <path d="M256 256c0-141.385 114.615-256 256-256s256 114.615 256 256v256c0 141.385-114.615 256-256 256s-256-114.615-256-256V256z" fill="#DC143C"/>
  <path d="M320 320c0-106.039 85.961-192 192-192s192 85.961 192 192v192c0 106.039-85.961 192-192 192s-192-85.961-192-192V320z" fill="#FFFFFF"/>
  <ellipse cx="448" cy="384" rx="32" ry="48" fill="#DC143C"/>
  <ellipse cx="576" cy="384" rx="32" ry="48" fill="#DC143C"/>
  <path d="M384 576c0-70.692 57.308-128 128-128s128 57.308 128 128" stroke="#DC143C" stroke-width="16" fill="none"/>
  <path d="M512 128l-32 64h64l-32-64z" fill="#FFD700"/>
</svg>